<?xml version="1.0" encoding="UTF-8" standalone="no"?>
<!-- Created with Inkscape (http://www.inkscape.org/) -->

<svg
   xmlns:dc="http://purl.org/dc/elements/1.1/"
   xmlns:cc="http://creativecommons.org/ns#"
   xmlns:rdf="http://www.w3.org/1999/02/22-rdf-syntax-ns#"
   xmlns:svg="http://www.w3.org/2000/svg"
   xmlns="http://www.w3.org/2000/svg"
   xmlns:sodipodi="http://sodipodi.sourceforge.net/DTD/sodipodi-0.dtd"
   xmlns:inkscape="http://www.inkscape.org/namespaces/inkscape"
   width="150"
   height="150"
   viewBox="0 0 150 150"
   id="svg4779"
   version="1.1"
   inkscape:version="0.91 r13725"
   sodipodi:docname="codemetas-logo.svg">
  <defs
     id="defs4781" />
  <sodipodi:namedview
     id="base"
     pagecolor="#ffffff"
     bordercolor="#666666"
     borderopacity="1.0"
     inkscape:pageopacity="0.0"
     inkscape:pageshadow="2"
     inkscape:zoom="1.979899"
     inkscape:cx="80.632183"
     inkscape:cy="129.58158"
     inkscape:document-units="px"
     inkscape:current-layer="layer1"
     showgrid="false"
     units="px"
     inkscape:window-width="1920"
     inkscape:window-height="1176"
     inkscape:window-x="1680"
     inkscape:window-y="0"
     inkscape:window-maximized="1" />
  <metadata
     id="metadata4784">
    <rdf:RDF>
      <cc:Work
         rdf:about="">
        <dc:format>image/svg+xml</dc:format>
        <dc:type
           rdf:resource="http://purl.org/dc/dcmitype/StillImage" />
        <dc:title></dc:title>
      </cc:Work>
    </rdf:RDF>
  </metadata>
  <g
     inkscape:label="Layer 1"
     inkscape:groupmode="layer"
     id="layer1"
     transform="translate(0,-902.36216)">
    <path
       style="color:#000000;clip-rule:nonzero;display:inline;overflow:visible;visibility:visible;opacity:1;isolation:auto;mix-blend-mode:normal;color-interpolation:sRGB;color-interpolation-filters:linearRGB;solid-color:#000000;solid-opacity:1;fill:#000000;fill-opacity:1;fill-rule:evenodd;stroke:none;stroke-width:0.5;stroke-linecap:round;stroke-linejoin:round;stroke-miterlimit:4;stroke-dasharray:none;stroke-dashoffset:0;stroke-opacity:1;color-rendering:auto;image-rendering:auto;shape-rendering:auto;text-rendering:auto;enable-background:accumulate"
       d="m 75.402463,907.05625 c -0.22373,-0.22373 -0.5842,-0.22512 -0.80793,-10e-4 l -17.585141,17.58514 c 0.12698,-0.12698 0.331541,-0.12698 0.458521,0 l 0.0262,0.0262 6.56146,6.56146 24.774981,24.77498 c 0.12697,0.12697 0.125589,0.33015 -0.001,0.45713 l -6.61255,6.61255 c -0.126981,0.12698 -0.330161,0.12836 -0.457131,10e-4 l -24.520869,-24.52086 -21.2132,21.2132 24.52087,24.52087 c 0.12697,0.12697 0.12559,0.33015 -0.001,0.45713 l -6.61255,6.61255 c -0.12698,0.12698 -0.33016,0.12836 -0.45713,0.001 l -24.77498,-24.77498 -6.56146,-6.56146 -0.0262,-0.0262 c -0.12698,-0.12698 -0.127,-0.33151 0,-0.45852 L 4.6925635,976.95723 c -0.22373,0.22373 -0.22373,0.58559 0,0.80932 l 69.9027495,69.90285 c 0.22373,0.2237 0.5842,0.2223 0.80793,-10e-4 l 17.60999,-17.61 c -0.14109,0.1411 -0.36714,0.1411 -0.50823,0 l -6.56145,-6.5615 c -0.14109,-0.1411 -0.14248,-0.3685 -10e-4,-0.5096 l 28.030167,-28.03022 -5.3033,-5.3033 -28.030168,28.03022 c -0.141089,0.1411 -0.367139,0.1411 -0.50823,0 l -6.561449,-6.5615 c -0.141091,-0.141 -0.142479,-0.3685 -9.99e-4,-0.5096 l 28.030156,-28.03018 -5.303296,-5.30331 -28.03016,28.03019 c -0.141091,0.1411 -0.367141,0.1411 -0.508221,0 l -6.56146,-6.56148 c -0.14109,-0.14109 -0.14248,-0.36853 -0.001,-0.50962 l 28.259421,-28.25941 6.586309,-6.58631 0.0262,-0.0262 c 0.12699,-0.12698 0.33154,-0.12698 0.45852,0 l 0.0262,0.0262 6.561457,6.56145 5.81292,5.81292 6.56146,6.56145 5.81291,5.81291 6.56146,6.56146 0.0262,0.0262 c 0.12698,0.12698 0.1256,0.33015 -10e-4,0.45713 l 17.42079,-17.42079 c 0.22373,-0.22373 0.22373,-0.58281 0,-0.80654 L 75.402433,907.05624 Z"
       id="rect4136-3-0-7-9-83-2-5"
       inkscape:connector-curvature="0" />
  </g>
</svg>
